#!OML:ASF I:\Actors\actors\Patient Classification 2\Patient 1\Session 1\actor1.ASF
:FULLY-SPECIFIED
:DEGREES
235
root -0.706723 18.7266 6.1327 4.06472 0.361998 -4.56758
lowerback 6.58025 2.12096 5.23571
upperback -3.01258 3.3137 -0.292653
thorax -6.54426 1.3975 -3.63854
lowerneck -8.98573 -8.40017 -7.0551
upperneck 4.95033 -11.0274 8.17783
head 3.78165 -5.24942 2.90145
rclavicle -1.69712e-014 1.98785e-015
rhumerus 17.7964 -15.3529 -37.2998
rradius 93.9393
rwrist 5.67685
rhand -33.2234 -38.9449
rfingers 7.12502
rthumb -6.42985 -68.8273
lclavicle -1.69712e-014 1.98785e-015
lhumerus -46.8823 -2.53821 86.6957
lradius 46.2544
lwrist -2.40196
lhand -4.2923 -25.8443
lfingers 7.12502
lthumb 21.4732 2.98554
rfemur 0 0 0
rtibia 0
rfoot 0 0
rtoes 0
lfemur -7.69998 -6.69786 -9.12282
ltibia 23.5303
lfoot -23.4207 12.668
ltoes -55.9534
236
root -0.707096 18.7265 6.13296 4.08073 0.251809 -4.558
lowerback 6.51519 2.0758 5.30154
upperback -3.00248 3.25442 -0.304144
thorax -6.49809 1.36702 -3.67728
lowerneck -9.03322 -8.34067 -6.88628
upperneck 5.03014 -10.9641 8.10891
head 3.79561 -5.21584 2.857
rclavicle 1.50766e-014 -9.14409e-015
rhumerus 18.9369 -15.2361 -38.3055
rradius 93.8812
rwrist 4.76437
rhand -33.432 -39.9214
rfingers 7.12502
rthumb -6.63125 -69.7975
lclavicle 1.50766e-014 -9.14409e-015
lhumerus -46.9374 -2.50158 86.6939
lradius 46.4603
lwrist -2.52707
lhand -4.30688 -24.9271
lfingers 7.12502
lthumb 21.4592 3.90437
rfemur 0 0 0
rtibia 0
rfoot 0 0
rtoes 0
lfemur -7.67352 -6.71887 -9.14721
ltibia 23.5192
lfoot -23.497 12.7457
ltoes -55.8885
237
root -0.722796 18.7221 6.14224 3.90959 0.326151 -4.54962
lowerback 6.50485 1.95929 5.17476
upperback -2.92204 3.08753 -0.236754
thorax -6.4325 1.29545 -3.51448
lowerneck -9.09971 -8.2901 -6.72902
upperneck 5.14216 -10.9072 7.98097
head 3.82009 -5.18736 2.7947
rclavicle -1.1896e-014 -2.38542e-015
rhumerus 19.9807 -14.8051 -38.9364
rradius 93.9962
rwrist 4.07062
rhand -34.0472 -40.6082
rfingers 7.12502
rthumb -7.22518 -70.4649
lclavicle -1.1896e-014 -2.38542e-015
lhumerus -46.9918 -2.40595 86.6107
lradius 46.1495
lwrist -2.34237
lhand -4.43929 -25.9403
lfingers 7.12502
lthumb 21.3321 2.90554
rfemur 0 0 0
rtibia 0
rfoot 0 0
rtoes 0
lfemur -7.44112 -6.46695 -9.07971
ltibia 23.4876
lfoot -23.3901 12.4101
ltoes -55.9651
238
root -0.707821 18.7264 6.13263 4.05123 -0.119914 -4.5488
lowerback 6.54595 1.99965 5.46212
upperback -3.02957 3.17259 -0.26844
thorax -6.54748 1.31824 -3.72318
lowerneck -8.89164 -8.23966 -6.5184
upperneck 5.09255 -10.8525 7.7428
head 3.74176 -5.17265 2.70497
rclavicle 1.60456e-014 -1.47101e-014
rhumerus 20.783 -13.8257 -38.9758
rradius 94.1536
rwrist 4.63724
rhand -34.7524 -41.1475
rfingers 7.12502
rthumb -7.90579 -70.9796
lclavicle 1.60456e-014 -1.47101e-014
lhumerus -47.1786 -2.46864 86.6706
lradius 46.0952
lwrist -2.31343
lhand -4.26103 -25.8674
lfingers 7.12502
lthumb 21.5033 2.95902
rfemur 0 0 0
rtibia 0
rfoot 0 0
rtoes 0
lfemur -7.49317 -6.55931 -9.21145
ltibia 23.4603
lfoot -23.5568 12.9715
ltoes -55.9683
239
root -0.712246 18.7259 6.13486 4.02228 -0.230117 -4.50612
lowerback 6.50541 1.95286 5.46457
upperback -3.03417 3.10902 -0.248961
thorax -6.53649 1.2876 -3.69526
lowerneck -8.63917 -8.18374 -6.33043
upperneck 4.99905 -10.7919 7.56213
head 3.64748 -5.15432 2.63901
rclavicle -4.31301e-014 -1.98785e-015
rhumerus 21.4102 -12.6188 -38.6505
rradius 94.4445
rwrist 4.91165
rhand -35.2757 -40.1442
rfingers 7.12502
rthumb -8.41089 -69.9568
lclavicle -4.31301e-014 -1.98785e-015
lhumerus -47.3425 -2.60495 86.7467
lradius 46.0343
lwrist -2.41106
lhand -4.04678 -25.7988
lfingers 7.12502
lthumb 21.709 3.00392
rfemur 0 0 0
rtibia 0
rfoot 0 0
rtoes 0
lfemur -7.40922 -6.45468 -9.26163
ltibia 23.4293
lfoot -23.497 13.0517
ltoes -56.096
240
root -0.715195 18.7255 6.13696 4.03483 -0.295823 -4.47329
lowerback 6.39923 1.89961 5.51028
upperback -3.01633 3.03475 -0.246684
thorax -6.46203 1.25212 -3.70473
lowerneck -8.58698 -8.1227 -6.25333
upperneck 5.06336 -10.7208 7.50671
head 3.64635 -5.12063 2.6171
rclavicle 1.0225e-014 1.98785e-014
rhumerus 21.7287 -11.2943 -38.0545
rradius 94.9355
rwrist 5.02419
rhand -35.2163 -37.5348
rfingers 7.12502
rthumb -8.35357 -67.3497
lclavicle 1.0225e-014 1.98785e-014
lhumerus -47.383 -2.7283 86.7959
lradius 45.8964
lwrist -2.60618
lhand -3.87386 -25.6941
lfingers 7.12502
lthumb 21.8751 3.08932
rfemur 0 0 0
rtibia 0
rfoot 0 0
rtoes 0
lfemur -7.37445 -6.36729 -9.29608
ltibia 23.3903
lfoot -23.4352 13.069
ltoes -56.2309
241
root -0.718921 18.7256 6.14017 4.08094 -0.362668 -4.45017
lowerback 6.2833 1.86231 5.55753
upperback -3.07058 2.98324 -0.254072
thorax -6.456 1.22379 -3.72948
lowerneck -8.3992 -8.06831 -6.26589
upperneck 5.17977 -10.6615 7.48515
head 3.64654 -5.09567 2.62225
rclavicle 7.37677e-015 1.07344e-014
rhumerus 21.5855 -9.8164 -37.1527
rradius 95.6134
rwrist 4.93787
rhand -34.9326 -33.6992
rfingers 7.12502
rthumb -8.07975 -63.5247
lclavicle 7.37677e-015 1.07344e-014
lhumerus -47.5123 -2.96798 86.873
lradius 45.7842
lwrist -2.65053
lhand -3.68193 -25.5907
lfingers 7.12502
lthumb 22.0594 3.1711
rfemur 0 0 0
rtibia 0
rfoot 0 0
rtoes 0
lfemur -7.36843 -6.27089 -9.30956
ltibia 23.3363
lfoot -23.3994 13.0508
ltoes -56.2916
242
root -0.745614 18.7181 6.15814 3.80136 0.0378346 -4.41294
lowerback 6.25744 1.68476 5.28377
upperback -3.01377 2.72085 -0.196158
thorax -6.4209 1.10992 -3.48449
lowerneck -8.22333 -8.03133 -6.24583
upperneck 5.31064 -10.6258 7.42021
head 3.65039 -5.08312 2.60688
rclavicle -6.2027e-015 -1.59028e-015
rhumerus 21.1096 -8.24495 -36.1092
rradius 96.205
rwrist 5.52027
rhand -35.1302 -29.1445
rfingers 7.12502
rthumb -8.27042 -58.9626
lclavicle -6.2027e-015 -1.59028e-015
lhumerus -47.6693 -3.28005 86.9323
lradius 45.7361
lwrist -2.62483
lhand -3.53072 -25.6505
lfingers 7.12502
lthumb 22.2045 3.09415
rfemur 0 0 0
rtibia 0
rfoot 0 0
rtoes 0
lfemur -7.09384 -5.97534 -9.17722
ltibia 23.2951
lfoot -23.1598 12.3529
ltoes -56.2995
243
root -0.758783 18.7151 6.16715 3.71461 0.206228 -4.4081
lowerback 6.20529 1.60418 5.18283
upperback -2.99855 2.60018 -0.198417
thorax -6.39002 1.05606 -3.41474
lowerneck -8.17774 -7.97315 -6.1693
upperneck 5.37091 -10.5591 7.38367
head 3.65068 -5.05062 2.59002
rclavicle -2.7308e-014 -1.31198e-014
rhumerus 20.4953 -6.80885 -35.0688
rradius 96.7845
rwrist 6.6114
rhand -35.6447 -25.4889
rfingers 7.12502
rthumb -8.76692 -55.2868
lclavicle -2.7308e-014 -1.31198e-014
lhumerus -47.6745 -3.45976 86.8912
lradius 45.6815
lwrist -2.79112
lhand -3.40363 -25.7589
lfingers 7.12502
lthumb 22.3265 2.97116
rfemur 0 0 0
rtibia 0
rfoot 0 0
rtoes 0
lfemur -7.00675 -5.84296 -9.09803
ltibia 23.2663
lfoot -23.0645 12.0513
ltoes -56.2608
